<?xml version="1.0" encoding="UTF-8"?>
<svg width="16px" height="16px" viewBox="0 0 16 16" version="1.1" xmlns="http://www.w3.org/2000/svg" xmlns:xlink="http://www.w3.org/1999/xlink">
    <!-- Generator: Sketch 50.2 (55047) - http://www.bohemiancoding.com/sketch -->
    <title>yinyang</title>
    <desc>Created with Sketch.</desc>
    <defs></defs>
    <g id="Page-1" stroke="none" stroke-width="1" fill="none" fill-rule="evenodd">
        <g id="yinyang" fill="#FFFFFF" fill-rule="nonzero">
            <path d="M8.97595264,0.1 C8.57595264,0 8.27595264,0 7.97595264,0 C3.97595264,0 0.475952642,3 0.0759526419,7 C-0.224047358,9.1 0.375952642,11.2 1.67595264,12.9 C2.97595264,14.6 4.87595264,15.7 6.97595264,15.9 C7.37595264,16 7.67595264,16 7.97595264,16 C11.9759526,16 15.3759526,13 15.8759526,9 C16.4759526,4.6 13.2759526,0.6 8.97595264,0.1 Z M13.4759526,5.6 C12.5759526,5 11.3759526,4.8 10.3759526,5.1 C9.37595264,5.4 8.57595264,6.2 8.17595264,7.2 C8.07595264,7.5 7.97595264,7.7 7.97595264,8 C7.87595264,8.7 7.57595264,9.4 7.07595264,9.9 C6.57595264,10.5 5.97595264,10.8 5.27595264,11 C4.57595264,11.2 3.77595264,11.1 3.07595264,10.8 C2.37595264,10.5 1.87595264,10.1 1.47595264,9.5 C1.17595264,8.9 0.975952642,8.1 0.975952642,7.4 C0.975952642,7.3 0.975952642,7.2 0.975952642,7.1 C1.47595264,3.6 4.47595264,1 7.97595264,1 C8.27595264,1 8.57595264,1 8.77595264,1 C12.3759526,1.4 15.0759526,4.6 14.8759526,8.2 C14.8759526,7.2 14.3759526,6.2 13.4759526,5.6 Z" id="Shape"></path>
        </g>
    </g>
</svg>